<svg width="32" height="32" viewBox="0 0 32 32" fill="none" xmlns="http://www.w3.org/2000/svg">
<path d="M18.8482 4.4819L19.5945 4.40727V4.40727L18.8482 4.4819ZM22.1305 5.8415L22.6054 6.42196V6.42196L22.1305 5.8415ZM23.5251 5.03456L23.5624 4.28549H23.5624L23.5251 5.03456ZM24.8223 5.96613L24.2919 6.49646V6.49646L24.8223 5.96613ZM26.0338 7.17768L25.5035 7.70801L25.5035 7.70801L26.0338 7.17768ZM26.1584 9.86946L26.6888 10.3998L26.7152 10.3733L26.7389 10.3444L26.1584 9.86946ZM26.1584 9.86947L25.6281 9.33914L25.6016 9.36559L25.578 9.39454L26.1584 9.86947ZM24.8094 12.351L25.5023 12.064V12.064L24.8094 12.351ZM27.5181 13.1518L27.4434 13.8981L27.5181 13.1518ZM29.0748 13.5673L28.5187 14.0706V14.0706L29.0748 13.5673ZM29.0748 18.4327L28.5187 17.9294L28.5187 17.9294L29.0748 18.4327ZM27.5182 18.8482L27.5929 19.5944H27.5929L27.5182 18.8482ZM24.8099 19.6489L25.5028 19.9359L24.8099 19.6489ZM26.1586 22.1301L26.7391 21.6552L26.1586 22.1301ZM26.9654 23.5245L27.7145 23.5619L26.9654 23.5245ZM26.0339 24.8217L26.5642 25.352L26.5642 25.352L26.0339 24.8217ZM24.8223 26.0333L24.292 25.5029H24.292L24.8223 26.0333ZM23.5251 26.9648L23.5625 27.7139L23.5251 26.9648ZM22.1306 26.1579L21.6425 26.7273L21.649 26.7329L21.6556 26.7384L22.1306 26.1579ZM22.1305 26.1579L22.6186 25.5884L22.6121 25.5828L22.6055 25.5774L22.1305 26.1579ZM19.649 24.8088L19.936 25.5017H19.936L19.649 24.8088ZM18.8482 27.5179L19.5945 27.5925L19.5945 27.5925L18.8482 27.5179ZM18.4327 29.0748L17.9294 28.5187L17.9294 28.5187L18.4327 29.0748ZM13.5673 29.0748L14.0706 28.5187H14.0706L13.5673 29.0748ZM13.1518 27.5181L12.4055 27.5927V27.5927L13.1518 27.5181ZM9.86943 26.1585L10.3444 26.7389L9.86943 26.1585ZM7.17763 26.0339L6.6473 26.5642H6.6473L7.17763 26.0339ZM5.96609 24.8223L5.43576 25.3526L5.43576 25.3526L5.96609 24.8223ZM5.03451 23.5251L4.28544 23.5625V23.5625L5.03451 23.5251ZM5.84147 22.1305L6.42193 22.6055H6.42194L5.84147 22.1305ZM4.48191 18.8482L4.40728 19.5945H4.40729L4.48191 18.8482ZM2.92522 18.4327L2.36913 18.9359H2.36913L2.92522 18.4327ZM2.92522 13.5673L3.48131 14.0706L3.48131 14.0706L2.92522 13.5673ZM4.48208 13.1518L4.40745 12.4055H4.40745L4.48208 13.1518ZM5.84167 9.86904L6.42214 9.39411L5.84167 9.86904ZM8.47491 5.03396L8.43755 4.28489L8.47491 5.03396ZM9.86949 5.84092L9.39456 6.42139L9.86949 5.84092ZM12.3511 7.19003L12.6381 7.88294H12.6381L12.3511 7.19003ZM13.1518 4.48173L13.8981 4.55636V4.55636L13.1518 4.48173ZM13.5673 2.9252L13.0641 2.36911L13.0641 2.36912L13.5673 2.9252ZM19.5945 4.40727C19.5532 3.99437 19.5165 3.61359 19.4459 3.30744C19.3708 2.98146 19.2372 2.64173 18.9359 2.36912L17.9294 3.48129C17.9297 3.48152 17.9296 3.48143 17.9293 3.4811C17.929 3.48077 17.9288 3.48061 17.929 3.48077C17.929 3.48086 17.9316 3.48428 17.9362 3.49335C17.9463 3.51338 17.9641 3.55712 17.9843 3.6445C18.0284 3.8357 18.0567 4.104 18.1019 4.55653L19.5945 4.40727ZM19.936 6.49764C19.9998 6.52408 19.9252 6.5659 19.8309 6.18844C19.737 5.81255 19.6796 5.25895 19.5945 4.40727L18.1019 4.55653C18.1821 5.35797 18.2487 6.0442 18.3756 6.5521C18.5022 7.05844 18.7453 7.62804 19.362 7.88346L19.936 6.49764ZM21.6556 5.26103C20.9931 5.80303 20.5611 6.15395 20.2289 6.35332C19.8953 6.55352 19.8722 6.4712 19.936 6.49764L19.362 7.88346C19.9786 8.13888 20.5533 7.90805 21.0008 7.63948C21.4497 7.37009 21.9821 6.93199 22.6054 6.42196L21.6556 5.26103ZM23.5624 4.28549C23.1566 4.26525 22.8219 4.41102 22.5383 4.58836C22.2719 4.75492 21.9767 4.99826 21.6556 5.26103L22.6054 6.42196C22.9574 6.13398 23.1671 5.96426 23.3335 5.86024C23.4095 5.8127 23.4531 5.79438 23.4744 5.78736C23.484 5.78418 23.4883 5.7836 23.4884 5.78358C23.4886 5.78356 23.4884 5.78359 23.4879 5.78361C23.4875 5.78363 23.4874 5.78361 23.4877 5.78363L23.5624 4.28549ZM25.3526 5.4358C25.0626 5.14586 24.7954 4.87651 24.5481 4.68568C24.2838 4.48177 23.9666 4.30565 23.5624 4.28549L23.4877 5.78363C23.4884 5.78366 23.488 5.78364 23.488 5.78365C23.4883 5.7837 23.4924 5.78469 23.5014 5.78868C23.5213 5.79747 23.5619 5.8194 23.6317 5.87322C23.7847 5.99131 23.9736 6.17816 24.2919 6.49646L25.3526 5.4358ZM26.5641 6.64735L25.3526 5.4358L24.2919 6.49646L25.5035 7.70801L26.5641 6.64735ZM27.7145 8.43754C27.6943 8.03336 27.5182 7.71613 27.3143 7.45188C27.1234 7.20458 26.8541 6.9373 26.5641 6.64735L25.5035 7.70801C25.8218 8.02631 26.0086 8.21522 26.1267 8.36826C26.1805 8.438 26.2025 8.47865 26.2113 8.49854C26.2153 8.50757 26.2162 8.51168 26.2163 8.51192C26.2163 8.51195 26.2163 8.51159 26.2163 8.51225L27.7145 8.43754ZM26.7389 10.3444C27.0017 10.0232 27.245 9.72806 27.4116 9.46165C27.5889 9.178 27.7347 8.84331 27.7145 8.43754L26.2163 8.51225C26.2163 8.51259 26.2163 8.51244 26.2163 8.512C26.2164 8.51156 26.2164 8.51136 26.2164 8.51156C26.2163 8.51167 26.2158 8.51593 26.2126 8.52558C26.2056 8.54687 26.1872 8.59042 26.1397 8.66646C26.0357 8.83284 25.866 9.04254 25.578 9.39453L26.7389 10.3444ZM26.6888 10.3998L26.6888 10.3998L25.6281 9.33913L25.6281 9.33914L26.6888 10.3998ZM25.5023 12.064C25.5287 12.1278 25.4464 12.1047 25.6466 11.771C25.846 11.4388 26.1969 11.0068 26.7389 10.3444L25.578 9.39454C25.0679 10.0179 24.6298 10.5503 24.3604 10.9992C24.0919 11.4467 23.861 12.0214 24.1165 12.638L25.5023 12.064ZM27.5927 12.4055C26.741 12.3203 26.1874 12.263 25.8115 12.1691C25.434 12.0748 25.4758 12.0002 25.5023 12.064L24.1165 12.638C24.3719 13.2547 24.9415 13.4978 25.4478 13.6243C25.9557 13.7513 26.642 13.8179 27.4434 13.8981L27.5927 12.4055ZM29.6309 13.0641C29.3583 12.7628 29.0185 12.6292 28.6925 12.5541C28.3864 12.4834 28.0056 12.4468 27.5927 12.4055L27.4434 13.8981C27.896 13.9433 28.1643 13.9716 28.3555 14.0157C28.4429 14.0358 28.4866 14.0537 28.5066 14.0638C28.5157 14.0683 28.5191 14.071 28.5192 14.071C28.5194 14.0711 28.5192 14.071 28.5189 14.0707C28.5186 14.0704 28.5185 14.0703 28.5187 14.0706L29.6309 13.0641ZM30.0833 15.1433C30.0833 14.7332 30.0848 14.3538 30.0449 14.044C30.0022 13.713 29.9024 13.3641 29.6309 13.064L28.5187 14.0706C28.5191 14.0711 28.5189 14.0708 28.5189 14.0708C28.5191 14.071 28.5213 14.0746 28.5248 14.0838C28.5327 14.1041 28.5459 14.1484 28.5572 14.2357C28.5819 14.4274 28.5833 14.6931 28.5833 15.1433H30.0833ZM30.0833 16.8567V15.1433H28.5833V16.8567H30.0833ZM29.6309 18.9359C29.9024 18.6359 30.0022 18.287 30.0449 17.956C30.0848 17.6462 30.0833 17.2667 30.0833 16.8567H28.5833C28.5833 17.3068 28.5819 17.5725 28.5572 17.7642C28.5459 17.8516 28.5327 17.8959 28.5248 17.9161C28.5213 17.9254 28.5191 17.929 28.5189 17.9292C28.5189 17.9292 28.5191 17.9289 28.5187 17.9294L29.6309 18.9359ZM27.5929 19.5944C28.0057 19.5532 28.3865 19.5165 28.6926 19.4459C29.0186 19.3707 29.3583 19.2372 29.6309 18.9359L28.5187 17.9294C28.5185 17.9297 28.5186 17.9296 28.5189 17.9293C28.5192 17.929 28.5194 17.9288 28.5192 17.929C28.5191 17.929 28.5157 17.9316 28.5066 17.9362C28.4866 17.9463 28.4429 17.9641 28.3555 17.9843C28.1643 18.0284 27.8961 18.0566 27.4436 18.1019L27.5929 19.5944ZM25.5028 19.9359C25.4764 19.9997 25.4345 19.9252 25.8119 19.8308C26.1878 19.7369 26.7413 19.6796 27.5929 19.5944L27.4436 18.1019C26.6423 18.182 25.9561 18.2487 25.4482 18.3756C24.9419 18.5021 24.3724 18.7453 24.117 19.3619L25.5028 19.9359ZM26.7391 21.6552C26.1972 20.9928 25.8464 20.561 25.647 20.2288C25.4469 19.8953 25.5292 19.8721 25.5028 19.9359L24.117 19.3619C23.8616 19.9785 24.0923 20.5531 24.3609 21.0006C24.6302 21.4495 25.0682 21.9818 25.5782 22.605L26.7391 21.6552ZM27.7145 23.5619C27.7348 23.1561 27.589 22.8214 27.4117 22.5378C27.2451 22.2714 27.0018 21.9763 26.7391 21.6552L25.5782 22.605C25.8661 22.957 26.0358 23.1666 26.1398 23.333C26.1873 23.409 26.2056 23.4525 26.2126 23.4738C26.2158 23.4834 26.2164 23.4877 26.2164 23.4878C26.2164 23.488 26.2164 23.4878 26.2164 23.4874C26.2164 23.4869 26.2164 23.4868 26.2164 23.4871L27.7145 23.5619ZM26.5642 25.352C26.8542 25.0621 27.1235 24.7948 27.3143 24.5475C27.5182 24.2833 27.6944 23.966 27.7145 23.5619L26.2164 23.4871C26.2163 23.4878 26.2164 23.4874 26.2164 23.4875C26.2163 23.4877 26.2153 23.4918 26.2113 23.5008C26.2025 23.5207 26.1806 23.5614 26.1268 23.6311C26.0087 23.7842 25.8218 23.9731 25.5035 24.2914L26.5642 25.352ZM25.3527 26.5636L26.5642 25.352L25.5035 24.2914L24.292 25.5029L25.3527 26.5636ZM23.5625 27.7139C23.9666 27.6937 24.2839 27.5176 24.5481 27.3137C24.7954 27.1229 25.0627 26.8535 25.3527 26.5636L24.292 25.5029C23.9737 25.8212 23.7848 26.0081 23.6317 26.1262C23.562 26.18 23.5214 26.2019 23.5015 26.2107C23.4924 26.2147 23.4883 26.2157 23.4881 26.2157C23.4881 26.2157 23.4884 26.2157 23.4878 26.2158L23.5625 27.7139ZM21.6556 26.7384C21.9768 27.0011 22.2719 27.2445 22.5384 27.411C22.822 27.5884 23.1567 27.7341 23.5625 27.7139L23.4878 26.2158C23.4874 26.2158 23.4876 26.2158 23.488 26.2158C23.4884 26.2158 23.4887 26.2158 23.4884 26.2158C23.4883 26.2158 23.4841 26.2152 23.4744 26.212C23.4531 26.205 23.4096 26.1867 23.3335 26.1392C23.1672 26.0351 22.9575 25.8654 22.6055 25.5774L21.6556 26.7384ZM21.6425 26.7273L21.6425 26.7273L22.6187 25.5884L22.6186 25.5884L21.6425 26.7273ZM19.936 25.5017C19.8722 25.5282 19.8954 25.4459 20.229 25.6461C20.5612 25.8454 20.9932 26.1964 21.6556 26.7383L22.6055 25.5774C21.9821 25.0674 21.4497 24.6293 21.0009 24.3599C20.5533 24.0913 19.9787 23.8605 19.362 24.1159L19.936 25.5017ZM19.5945 27.5925C19.6797 26.7407 19.737 26.187 19.8309 25.811C19.9253 25.4335 19.9999 25.4753 19.936 25.5017L19.362 24.1159C18.7453 24.3714 18.5022 24.941 18.3757 25.4474C18.2488 25.9554 18.1821 26.6417 18.1019 27.4433L19.5945 27.5925ZM18.9359 29.6309C19.2372 29.3582 19.3708 29.0185 19.4459 28.6925C19.5166 28.3863 19.5532 28.0055 19.5945 27.5925L18.1019 27.4433C18.0567 27.8959 18.0284 28.1642 17.9843 28.3554C17.9641 28.4428 17.9463 28.4866 17.9362 28.5066C17.9316 28.5157 17.929 28.5191 17.929 28.5192C17.9288 28.5194 17.929 28.5192 17.9293 28.5189C17.9296 28.5186 17.9297 28.5185 17.9294 28.5187L18.9359 29.6309ZM16.8567 30.0833C17.2667 30.0833 17.6462 30.0848 17.956 30.0449C18.287 30.0022 18.6359 29.9024 18.9359 29.6309L17.9294 28.5187C17.9289 28.5191 17.9292 28.5189 17.9292 28.5189C17.929 28.519 17.9254 28.5212 17.9162 28.5248C17.8959 28.5327 17.8516 28.5459 17.7643 28.5572C17.5725 28.5819 17.3068 28.5833 16.8567 28.5833V30.0833ZM15.1433 30.0833H16.8567V28.5833H15.1433V30.0833ZM13.0641 29.6309C13.3641 29.9024 13.713 30.0022 14.044 30.0449C14.3538 30.0848 14.7333 30.0833 15.1433 30.0833V28.5833C14.6932 28.5833 14.4275 28.5819 14.2357 28.5572C14.1484 28.5459 14.1041 28.5327 14.0838 28.5248C14.0746 28.5212 14.071 28.519 14.0708 28.5189C14.0708 28.5189 14.0711 28.5191 14.0706 28.5187L13.0641 29.6309ZM12.4055 27.5927C12.4468 28.0056 12.4835 28.3864 12.5541 28.6925C12.6292 29.0185 12.7628 29.3582 13.0641 29.6309L14.0706 28.5187C14.0703 28.5185 14.0704 28.5186 14.0707 28.5189C14.071 28.5192 14.0712 28.5194 14.071 28.5192C14.071 28.5191 14.0684 28.5157 14.0638 28.5066C14.0537 28.4866 14.0359 28.4429 14.0157 28.3555C13.9716 28.1643 13.9433 27.896 13.8981 27.4434L12.4055 27.5927ZM12.064 25.5023C12.0002 25.4758 12.0748 25.434 12.1691 25.8115C12.263 26.1874 12.3204 26.741 12.4055 27.5927L13.8981 27.4434C13.8179 26.642 13.7513 25.9557 13.6244 25.4478C13.4978 24.9415 13.2547 24.3719 12.638 24.1165L12.064 25.5023ZM10.3444 26.7389C11.0068 26.1969 11.4388 25.846 11.7711 25.6466C12.1047 25.4464 12.1278 25.5287 12.064 25.5023L12.638 24.1165C12.0214 23.861 11.4467 24.0919 10.9992 24.3604C10.5503 24.6298 10.0179 25.068 9.3945 25.578L10.3444 26.7389ZM8.43749 27.7145C8.84327 27.7347 9.17796 27.589 9.46161 27.4116C9.72802 27.2451 10.0232 27.0017 10.3444 26.7389L9.3945 25.578C9.04251 25.866 8.8328 26.0357 8.66642 26.1398C8.59038 26.1873 8.54683 26.2056 8.52553 26.2126C8.51588 26.2158 8.51162 26.2164 8.51151 26.2164C8.51131 26.2164 8.51151 26.2164 8.51195 26.2164C8.51239 26.2164 8.51254 26.2164 8.51221 26.2164L8.43749 27.7145ZM6.6473 26.5642C6.93725 26.8541 7.20453 27.1235 7.45183 27.3143C7.71608 27.5182 8.03332 27.6943 8.43749 27.7145L8.51221 26.2164C8.51155 26.2163 8.5119 26.2164 8.51188 26.2163C8.51164 26.2163 8.50752 26.2153 8.4985 26.2113C8.47861 26.2025 8.43795 26.1806 8.36821 26.1268C8.21517 26.0087 8.02627 25.8218 7.70796 25.5035L6.6473 26.5642ZM5.43576 25.3526L6.6473 26.5642L7.70796 25.5035L6.49642 24.292L5.43576 25.3526ZM4.28544 23.5625C4.3056 23.9666 4.48172 24.2839 4.68563 24.5481C4.87647 24.7954 5.14581 25.0627 5.43576 25.3526L6.49642 24.292C6.17811 23.9737 5.99127 23.7848 5.87317 23.6317C5.81936 23.562 5.79742 23.5213 5.78863 23.5015C5.78465 23.4924 5.78366 23.4883 5.7836 23.4881C5.78359 23.488 5.78362 23.4884 5.78358 23.4877L4.28544 23.5625ZM5.261 21.6556C4.99823 21.9768 4.75488 22.2719 4.58832 22.5383C4.41097 22.822 4.26521 23.1567 4.28544 23.5625L5.78358 23.4877C5.78357 23.4874 5.78358 23.4876 5.78356 23.488C5.78354 23.4884 5.78351 23.4886 5.78354 23.4884C5.78355 23.4883 5.78413 23.4841 5.78731 23.4744C5.79434 23.4531 5.81265 23.4096 5.86019 23.3335C5.96422 23.1672 6.13394 22.9574 6.42193 22.6055L5.261 21.6556ZM6.49764 19.936C6.4712 19.8721 6.55353 19.8953 6.35331 20.2289C6.15394 20.5611 5.80301 20.9931 5.261 21.6556L6.42194 22.6055C6.93197 21.9821 7.37008 21.4497 7.63948 21.0008C7.90804 20.5533 8.13889 19.9786 7.88346 19.3619L6.49764 19.936ZM4.40729 19.5945C5.25896 19.6796 5.81256 19.7369 6.18845 19.8309C6.5659 19.9252 6.52408 19.9998 6.49764 19.936L7.88346 19.3619C7.62804 18.7453 7.05845 18.5022 6.55211 18.3756C6.0442 18.2487 5.35798 18.182 4.55654 18.1019L4.40729 19.5945ZM2.36913 18.9359C2.64175 19.2372 2.98148 19.3708 3.30745 19.4459C3.6136 19.5165 3.99439 19.5532 4.40728 19.5945L4.55654 18.1019C4.10401 18.0566 3.83572 18.0284 3.64452 17.9843C3.55713 17.9641 3.51339 17.9463 3.49337 17.9362C3.4843 17.9316 3.48088 17.929 3.48079 17.929C3.48062 17.9288 3.48079 17.929 3.48112 17.9293C3.48144 17.9295 3.48153 17.9297 3.48131 17.9294L2.36913 18.9359ZM1.91667 16.8567C1.91667 17.2667 1.91521 17.6462 1.95514 17.956C1.99781 18.287 2.09759 18.6359 2.36913 18.9359L3.48131 17.9294C3.48086 17.9289 3.4811 17.9292 3.48109 17.9292C3.48096 17.929 3.47875 17.9254 3.47518 17.9162C3.46734 17.8959 3.4541 17.8516 3.44284 17.7643C3.41813 17.5725 3.41667 17.3068 3.41667 16.8567H1.91667ZM1.91667 15.1433V16.8567H3.41667V15.1433H1.91667ZM2.36913 13.064C2.09759 13.3641 1.99781 13.713 1.95514 14.044C1.91521 14.3538 1.91667 14.7332 1.91667 15.1433H3.41667C3.41667 14.6931 3.41813 14.4274 3.44284 14.2357C3.4541 14.1484 3.46734 14.1041 3.47518 14.0838C3.47875 14.0746 3.48096 14.071 3.48109 14.0708C3.4811 14.0708 3.48086 14.0711 3.48131 14.0706L2.36913 13.064ZM4.40745 12.4055C3.9945 12.4468 3.61368 12.4834 3.3075 12.554C2.98152 12.6292 2.64176 12.7628 2.36913 13.0641L3.48131 14.0706C3.48153 14.0703 3.48144 14.0704 3.48111 14.0707C3.48078 14.071 3.48061 14.0711 3.48078 14.071C3.48087 14.071 3.48429 14.0684 3.49336 14.0638C3.51339 14.0537 3.55715 14.0358 3.64455 14.0157C3.83578 13.9716 4.10412 13.9433 4.55671 13.8981L4.40745 12.4055ZM6.49814 12.064C6.52459 12.0001 6.56643 12.0747 6.18888 12.1691C5.81292 12.263 5.25923 12.3203 4.40745 12.4055L4.5567 13.8981C5.35825 13.8179 6.04456 13.7512 6.55251 13.6243C7.05887 13.4978 7.62853 13.2547 7.88396 12.638L6.49814 12.064ZM5.2612 10.344C5.80331 11.0065 6.15432 11.4386 6.35375 11.7709C6.55404 12.1046 6.47169 12.1278 6.49814 12.064L7.88396 12.638C8.1394 12.0213 7.90848 11.4465 7.6399 10.999C7.37045 10.5501 6.93228 10.0176 6.42214 9.39411L5.2612 10.344ZM4.2855 8.43693C4.26526 8.84274 4.41107 9.17745 4.58842 9.46111C4.755 9.72754 4.99838 10.0227 5.2612 10.344L6.42214 9.39411C6.1341 9.04206 5.96433 8.83231 5.86028 8.66589C5.81272 8.58983 5.7944 8.54627 5.78738 8.52496C5.78419 8.51531 5.78361 8.51105 5.7836 8.51094C5.78357 8.51074 5.7836 8.51094 5.78362 8.51139C5.78364 8.51183 5.78363 8.51198 5.78364 8.51165L4.2855 8.43693ZM5.43582 6.64674C5.14587 6.93669 4.87653 7.20398 4.68569 7.45127C4.48178 7.71552 4.30566 8.03276 4.2855 8.43693L5.78364 8.51165C5.78367 8.51099 5.78365 8.51134 5.78366 8.51132C5.78372 8.51108 5.78471 8.50696 5.78869 8.49794C5.79748 8.47805 5.81942 8.43739 5.87323 8.36766C5.99133 8.21462 6.17817 8.02571 6.49648 7.7074L5.43582 6.64674ZM6.64736 5.4352L5.43582 6.64674L6.49648 7.7074L7.70802 6.49586L6.64736 5.4352ZM8.43755 4.28489C8.03338 4.30504 7.71614 4.48117 7.45189 4.68508C7.20459 4.87591 6.93731 5.14525 6.64736 5.4352L7.70802 6.49586C8.02633 6.17756 8.21523 5.99071 8.36827 5.87261C8.43801 5.8188 8.47867 5.79687 8.49856 5.78808C8.50758 5.78409 8.5117 5.7831 8.51194 5.78304C8.51196 5.78304 8.51161 5.78306 8.51227 5.78302L8.43755 4.28489ZM10.3444 5.26045C10.0233 4.99768 9.72808 4.75433 9.46167 4.58776C9.17802 4.41042 8.84333 4.26465 8.43755 4.28489L8.51227 5.78302C8.5126 5.78301 8.51245 5.78303 8.51201 5.78301C8.51157 5.78299 8.51137 5.78295 8.51157 5.78298C8.51168 5.783 8.51594 5.78357 8.52559 5.78676C8.54689 5.79378 8.59044 5.81209 8.66648 5.85964C8.83286 5.96366 9.04257 6.13339 9.39456 6.42139L10.3444 5.26045ZM12.0641 6.49712C12.1279 6.47068 12.1047 6.553 11.7711 6.35278C11.4389 6.1534 11.0069 5.80247 10.3444 5.26045L9.39456 6.42139C10.018 6.93143 10.5503 7.36954 10.9992 7.63894C11.4468 7.90751 12.0214 8.13836 12.6381 7.88294L12.0641 6.49712ZM12.4056 4.4071C12.3204 5.25866 12.2631 5.81217 12.1692 6.18799C12.0748 6.56535 12.0003 6.52354 12.0641 6.49712L12.6381 7.88294C13.2547 7.62753 13.4979 7.05801 13.6244 6.55168C13.7513 6.04383 13.818 5.35768 13.8981 4.55636L12.4056 4.4071ZM13.0641 2.36912C12.7628 2.64172 12.6292 2.98142 12.5541 3.30738C12.4835 3.61352 12.4468 3.99426 12.4056 4.4071L13.8981 4.55636C13.9434 4.10388 13.9716 3.83564 14.0157 3.64447C14.0359 3.5571 14.0537 3.51337 14.0638 3.49336C14.0684 3.48429 14.071 3.48087 14.071 3.48078C14.0711 3.48061 14.071 3.48078 14.0707 3.48111C14.0704 3.48143 14.0703 3.48152 14.0706 3.48129L13.0641 2.36912ZM15.1433 1.91666C14.7333 1.91666 14.3538 1.9152 14.044 1.95513C13.713 1.99779 13.3641 2.09758 13.0641 2.36911L14.0706 3.48129C14.0711 3.48085 14.0708 3.48109 14.0708 3.48107C14.071 3.48094 14.0746 3.47873 14.0838 3.47517C14.1041 3.46732 14.1484 3.45408 14.2357 3.44282C14.4275 3.41811 14.6932 3.41666 15.1433 3.41666V1.91666ZM16.8567 1.91666H15.1433V3.41666H16.8567V1.91666ZM18.9359 2.36912C18.6359 2.09758 18.287 1.99779 17.956 1.95513C17.6462 1.9152 17.2667 1.91666 16.8567 1.91666V3.41666C17.3068 3.41666 17.5725 3.41811 17.7643 3.44282C17.8516 3.45408 17.8959 3.46732 17.9162 3.47517C17.9254 3.47873 17.929 3.48094 17.9292 3.48107C17.9292 3.48108 17.9289 3.48085 17.9294 3.48129L18.9359 2.36912ZM20.5833 16C20.5833 18.5313 18.5313 20.5833 16 20.5833V22.0833C19.3597 22.0833 22.0833 19.3597 22.0833 16H20.5833ZM16 11.4167C18.5313 11.4167 20.5833 13.4687 20.5833 16H22.0833C22.0833 12.6403 19.3597 9.91666 16 9.91666V11.4167ZM11.4167 16C11.4167 13.4687 13.4687 11.4167 16 11.4167V9.91666C12.6403 9.91666 9.91667 12.6403 9.91667 16H11.4167ZM16 20.5833C13.4687 20.5833 11.4167 18.5313 11.4167 16H9.91667C9.91667 19.3597 12.6403 22.0833 16 22.0833V20.5833Z" fill="#FFDCAA"/>
</svg>
